<svg xmlns="http://www.w3.org/2000/svg" width="1600" height="640" style="background:#101418;font-family:monospace">
<text x="20" y="28" fill="#dce3ea" font-size="17">Batteries.Data.List.Lemmas — 294 commands; arcs ↑ statement(type) deps, ↓ body(proof) deps</text>
<line x1="30" y1="320" x2="1570" y2="320" stroke="#3a4652" stroke-width="1"/>
<path d="M 346.1 320 A 18.2 18.2 0 0 0 382.4 320" fill="none" stroke="#4aa3df" stroke-opacity="0.4" stroke-width="1"/>
<path d="M 346.1 320 A 23.3 23.3 0 0 0 392.8 320" fill="none" stroke="#4aa3df" stroke-opacity="0.4" stroke-width="1"/>
<path d="M 346.1 320 A 28.5 28.5 0 0 0 403.1 320" fill="none" stroke="#4aa3df" stroke-opacity="0.4" stroke-width="1"/>
<path d="M 346.1 320 A 31.1 31.1 0 0 0 408.3 320" fill="none" stroke="#4aa3df" stroke-opacity="0.4" stroke-width="1"/>
<path d="M 346.1 320 A 33.7 33.7 0 0 0 413.5 320" fill="none" stroke="#4aa3df" stroke-opacity="0.4" stroke-width="1"/>
<path d="M 242.3 320 A 88.2 88.2 0 0 0 418.7 320" fill="none" stroke="#4aa3df" stroke-opacity="0.4" stroke-width="1"/>
<path d="M 268.3 320 A 75.2 75.2 0 0 0 418.7 320" fill="none" stroke="#4aa3df" stroke-opacity="0.4" stroke-width="1"/>
<path d="M 237.1 320 A 90.8 90.8 0 0 0 418.7 320" fill="none" stroke="#4aa3df" stroke-opacity="0.4" stroke-width="1"/>
<path d="M 527.6 320 A 2.6 2.6 0 0 1 532.8 320" fill="none" stroke="#ff9f43" stroke-opacity="0.75" stroke-width="1.3"/>
<path d="M 1010.1 320 A 2.6 2.6 0 0 1 1015.3 320" fill="none" stroke="#ff9f43" stroke-opacity="0.75" stroke-width="1.3"/>
<path d="M 1020.5 320 A 2.6 2.6 0 0 1 1025.7 320" fill="none" stroke="#ff9f43" stroke-opacity="0.75" stroke-width="1.3"/>
<circle cx="40.0" cy="320" r="1.6" fill="#8b97a3"/>
<circle cx="45.2" cy="320" r="1.6" fill="#8b97a3"/>
<circle cx="50.4" cy="320" r="1.6" fill="#8b97a3"/>
<circle cx="55.6" cy="320" r="1.6" fill="#8b97a3"/>
<circle cx="60.8" cy="320" r="1.6" fill="#8b97a3"/>
<circle cx="65.9" cy="320" r="1.6" fill="#8b97a3"/>
<circle cx="71.1" cy="320" r="1.6" fill="#8b97a3"/>
<circle cx="76.3" cy="320" r="1.6" fill="#8b97a3"/>
<circle cx="81.5" cy="320" r="1.6" fill="#8b97a3"/>
<circle cx="86.7" cy="320" r="1.6" fill="#8b97a3"/>
<circle cx="91.9" cy="320" r="1.6" fill="#8b97a3"/>
<circle cx="97.1" cy="320" r="1.6" fill="#8b97a3"/>
<circle cx="102.3" cy="320" r="1.6" fill="#8b97a3"/>
<circle cx="107.4" cy="320" r="1.6" fill="#8b97a3"/>
<circle cx="112.6" cy="320" r="1.6" fill="#8b97a3"/>
<circle cx="117.8" cy="320" r="1.6" fill="#8b97a3"/>
<circle cx="123.0" cy="320" r="1.6" fill="#8b97a3"/>
<circle cx="128.2" cy="320" r="1.6" fill="#8b97a3"/>
<circle cx="133.4" cy="320" r="1.6" fill="#8b97a3"/>
<circle cx="138.6" cy="320" r="1.6" fill="#8b97a3"/>
<circle cx="143.8" cy="320" r="1.6" fill="#8b97a3"/>
<circle cx="148.9" cy="320" r="1.6" fill="#8b97a3"/>
<circle cx="154.1" cy="320" r="1.6" fill="#8b97a3"/>
<circle cx="159.3" cy="320" r="1.6" fill="#8b97a3"/>
<circle cx="164.5" cy="320" r="1.6" fill="#8b97a3"/>
<circle cx="169.7" cy="320" r="1.6" fill="#8b97a3"/>
<circle cx="174.9" cy="320" r="1.6" fill="#8b97a3"/>
<circle cx="180.1" cy="320" r="1.6" fill="#8b97a3"/>
<circle cx="185.3" cy="320" r="1.6" fill="#8b97a3"/>
<circle cx="190.4" cy="320" r="1.6" fill="#8b97a3"/>
<circle cx="195.6" cy="320" r="1.6" fill="#8b97a3"/>
<circle cx="200.8" cy="320" r="1.6" fill="#8b97a3"/>
<circle cx="206.0" cy="320" r="1.6" fill="#8b97a3"/>
<circle cx="211.2" cy="320" r="1.6" fill="#8b97a3"/>
<circle cx="216.4" cy="320" r="1.6" fill="#8b97a3"/>
<circle cx="221.6" cy="320" r="1.6" fill="#8b97a3"/>
<circle cx="226.8" cy="320" r="1.6" fill="#8b97a3"/>
<circle cx="231.9" cy="320" r="1.6" fill="#8b97a3"/>
<circle cx="237.1" cy="320" r="1.6" fill="#8b97a3"/>
<circle cx="242.3" cy="320" r="1.6" fill="#8b97a3"/>
<circle cx="247.5" cy="320" r="1.6" fill="#8b97a3"/>
<circle cx="252.7" cy="320" r="1.6" fill="#8b97a3"/>
<circle cx="257.9" cy="320" r="1.6" fill="#8b97a3"/>
<circle cx="263.1" cy="320" r="1.6" fill="#8b97a3"/>
<circle cx="268.3" cy="320" r="1.6" fill="#8b97a3"/>
<circle cx="273.4" cy="320" r="1.6" fill="#8b97a3"/>
<circle cx="278.6" cy="320" r="1.6" fill="#8b97a3"/>
<circle cx="283.8" cy="320" r="1.6" fill="#8b97a3"/>
<circle cx="289.0" cy="320" r="1.6" fill="#8b97a3"/>
<circle cx="294.2" cy="320" r="1.6" fill="#8b97a3"/>
<circle cx="299.4" cy="320" r="1.6" fill="#8b97a3"/>
<circle cx="304.6" cy="320" r="1.6" fill="#8b97a3"/>
<circle cx="309.8" cy="320" r="1.6" fill="#8b97a3"/>
<circle cx="314.9" cy="320" r="1.6" fill="#8b97a3"/>
<circle cx="320.1" cy="320" r="1.6" fill="#8b97a3"/>
<circle cx="325.3" cy="320" r="1.6" fill="#8b97a3"/>
<circle cx="330.5" cy="320" r="1.6" fill="#8b97a3"/>
<circle cx="335.7" cy="320" r="1.6" fill="#8b97a3"/>
<circle cx="340.9" cy="320" r="1.6" fill="#8b97a3"/>
<circle cx="346.1" cy="320" r="1.6" fill="#8b97a3"/>
<circle cx="351.3" cy="320" r="1.6" fill="#8b97a3"/>
<circle cx="356.5" cy="320" r="1.6" fill="#8b97a3"/>
<circle cx="361.6" cy="320" r="1.6" fill="#8b97a3"/>
<circle cx="366.8" cy="320" r="1.6" fill="#8b97a3"/>
<circle cx="372.0" cy="320" r="1.6" fill="#8b97a3"/>
<circle cx="377.2" cy="320" r="1.6" fill="#8b97a3"/>
<circle cx="382.4" cy="320" r="1.6" fill="#8b97a3"/>
<circle cx="387.6" cy="320" r="1.6" fill="#8b97a3"/>
<circle cx="392.8" cy="320" r="1.6" fill="#8b97a3"/>
<circle cx="398.0" cy="320" r="1.6" fill="#8b97a3"/>
<circle cx="403.1" cy="320" r="1.6" fill="#8b97a3"/>
<circle cx="408.3" cy="320" r="1.6" fill="#8b97a3"/>
<circle cx="413.5" cy="320" r="1.6" fill="#8b97a3"/>
<circle cx="418.7" cy="320" r="1.6" fill="#8b97a3"/>
<circle cx="423.9" cy="320" r="1.6" fill="#8b97a3"/>
<circle cx="429.1" cy="320" r="1.6" fill="#8b97a3"/>
<circle cx="434.3" cy="320" r="1.6" fill="#8b97a3"/>
<circle cx="439.5" cy="320" r="1.6" fill="#8b97a3"/>
<circle cx="444.6" cy="320" r="1.6" fill="#8b97a3"/>
<circle cx="449.8" cy="320" r="1.6" fill="#8b97a3"/>
<circle cx="455.0" cy="320" r="1.6" fill="#8b97a3"/>
<circle cx="460.2" cy="320" r="1.6" fill="#8b97a3"/>
<circle cx="465.4" cy="320" r="1.6" fill="#8b97a3"/>
<circle cx="470.6" cy="320" r="1.6" fill="#8b97a3"/>
<circle cx="475.8" cy="320" r="1.6" fill="#8b97a3"/>
<circle cx="481.0" cy="320" r="1.6" fill="#8b97a3"/>
<circle cx="486.1" cy="320" r="1.6" fill="#8b97a3"/>
<circle cx="491.3" cy="320" r="1.6" fill="#8b97a3"/>
<circle cx="496.5" cy="320" r="1.6" fill="#8b97a3"/>
<circle cx="501.7" cy="320" r="1.6" fill="#8b97a3"/>
<circle cx="506.9" cy="320" r="1.6" fill="#8b97a3"/>
<circle cx="512.1" cy="320" r="1.6" fill="#8b97a3"/>
<circle cx="517.3" cy="320" r="1.6" fill="#8b97a3"/>
<circle cx="522.5" cy="320" r="1.6" fill="#8b97a3"/>
<circle cx="527.6" cy="320" r="1.6" fill="#8b97a3"/>
<circle cx="532.8" cy="320" r="1.6" fill="#8b97a3"/>
<circle cx="538.0" cy="320" r="1.6" fill="#8b97a3"/>
<circle cx="543.2" cy="320" r="1.6" fill="#8b97a3"/>
<circle cx="548.4" cy="320" r="1.6" fill="#8b97a3"/>
<circle cx="553.6" cy="320" r="1.6" fill="#8b97a3"/>
<circle cx="558.8" cy="320" r="1.6" fill="#8b97a3"/>
<circle cx="564.0" cy="320" r="1.6" fill="#8b97a3"/>
<circle cx="569.1" cy="320" r="1.6" fill="#8b97a3"/>
<circle cx="574.3" cy="320" r="1.6" fill="#8b97a3"/>
<circle cx="579.5" cy="320" r="1.6" fill="#8b97a3"/>
<circle cx="584.7" cy="320" r="1.6" fill="#8b97a3"/>
<circle cx="589.9" cy="320" r="1.6" fill="#8b97a3"/>
<circle cx="595.1" cy="320" r="1.6" fill="#8b97a3"/>
<circle cx="600.3" cy="320" r="1.6" fill="#8b97a3"/>
<circle cx="605.5" cy="320" r="1.6" fill="#8b97a3"/>
<circle cx="610.6" cy="320" r="1.6" fill="#8b97a3"/>
<circle cx="615.8" cy="320" r="1.6" fill="#8b97a3"/>
<circle cx="621.0" cy="320" r="1.6" fill="#8b97a3"/>
<circle cx="626.2" cy="320" r="1.6" fill="#8b97a3"/>
<circle cx="631.4" cy="320" r="1.6" fill="#8b97a3"/>
<circle cx="636.6" cy="320" r="1.6" fill="#8b97a3"/>
<circle cx="641.8" cy="320" r="1.6" fill="#8b97a3"/>
<circle cx="647.0" cy="320" r="1.6" fill="#8b97a3"/>
<circle cx="652.2" cy="320" r="1.6" fill="#8b97a3"/>
<circle cx="657.3" cy="320" r="1.6" fill="#8b97a3"/>
<circle cx="662.5" cy="320" r="1.6" fill="#8b97a3"/>
<circle cx="667.7" cy="320" r="1.6" fill="#8b97a3"/>
<circle cx="672.9" cy="320" r="1.6" fill="#8b97a3"/>
<circle cx="678.1" cy="320" r="1.6" fill="#8b97a3"/>
<circle cx="683.3" cy="320" r="1.6" fill="#8b97a3"/>
<circle cx="688.5" cy="320" r="1.6" fill="#8b97a3"/>
<circle cx="693.7" cy="320" r="1.6" fill="#8b97a3"/>
<circle cx="698.8" cy="320" r="1.6" fill="#8b97a3"/>
<circle cx="704.0" cy="320" r="1.6" fill="#8b97a3"/>
<circle cx="709.2" cy="320" r="1.6" fill="#8b97a3"/>
<circle cx="714.4" cy="320" r="1.6" fill="#8b97a3"/>
<circle cx="719.6" cy="320" r="1.6" fill="#8b97a3"/>
<circle cx="724.8" cy="320" r="1.6" fill="#8b97a3"/>
<circle cx="730.0" cy="320" r="1.6" fill="#8b97a3"/>
<circle cx="735.2" cy="320" r="1.6" fill="#8b97a3"/>
<circle cx="740.3" cy="320" r="1.6" fill="#8b97a3"/>
<circle cx="745.5" cy="320" r="1.6" fill="#8b97a3"/>
<circle cx="750.7" cy="320" r="1.6" fill="#8b97a3"/>
<circle cx="755.9" cy="320" r="1.6" fill="#8b97a3"/>
<circle cx="761.1" cy="320" r="1.6" fill="#8b97a3"/>
<circle cx="766.3" cy="320" r="1.6" fill="#8b97a3"/>
<circle cx="771.5" cy="320" r="1.6" fill="#8b97a3"/>
<circle cx="776.7" cy="320" r="1.6" fill="#8b97a3"/>
<circle cx="781.8" cy="320" r="1.6" fill="#8b97a3"/>
<circle cx="787.0" cy="320" r="1.6" fill="#8b97a3"/>
<circle cx="792.2" cy="320" r="1.6" fill="#8b97a3"/>
<circle cx="797.4" cy="320" r="1.6" fill="#8b97a3"/>
<circle cx="802.6" cy="320" r="1.6" fill="#8b97a3"/>
<circle cx="807.8" cy="320" r="1.6" fill="#8b97a3"/>
<circle cx="813.0" cy="320" r="1.6" fill="#8b97a3"/>
<circle cx="818.2" cy="320" r="1.6" fill="#8b97a3"/>
<circle cx="823.3" cy="320" r="1.6" fill="#8b97a3"/>
<circle cx="828.5" cy="320" r="1.6" fill="#8b97a3"/>
<circle cx="833.7" cy="320" r="1.6" fill="#8b97a3"/>
<circle cx="838.9" cy="320" r="1.6" fill="#8b97a3"/>
<circle cx="844.1" cy="320" r="1.6" fill="#8b97a3"/>
<circle cx="849.3" cy="320" r="1.6" fill="#8b97a3"/>
<circle cx="854.5" cy="320" r="1.6" fill="#8b97a3"/>
<circle cx="859.7" cy="320" r="1.6" fill="#8b97a3"/>
<circle cx="864.8" cy="320" r="1.6" fill="#8b97a3"/>
<circle cx="870.0" cy="320" r="1.6" fill="#8b97a3"/>
<circle cx="875.2" cy="320" r="1.6" fill="#8b97a3"/>
<circle cx="880.4" cy="320" r="1.6" fill="#8b97a3"/>
<circle cx="885.6" cy="320" r="1.6" fill="#8b97a3"/>
<circle cx="890.8" cy="320" r="1.6" fill="#8b97a3"/>
<circle cx="896.0" cy="320" r="1.6" fill="#8b97a3"/>
<circle cx="901.2" cy="320" r="1.6" fill="#8b97a3"/>
<circle cx="906.3" cy="320" r="1.6" fill="#8b97a3"/>
<circle cx="911.5" cy="320" r="1.6" fill="#8b97a3"/>
<circle cx="916.7" cy="320" r="1.6" fill="#8b97a3"/>
<circle cx="921.9" cy="320" r="1.6" fill="#8b97a3"/>
<circle cx="927.1" cy="320" r="1.6" fill="#8b97a3"/>
<circle cx="932.3" cy="320" r="1.6" fill="#8b97a3"/>
<circle cx="937.5" cy="320" r="1.6" fill="#8b97a3"/>
<circle cx="942.7" cy="320" r="1.6" fill="#8b97a3"/>
<circle cx="947.8" cy="320" r="1.6" fill="#8b97a3"/>
<circle cx="953.0" cy="320" r="1.6" fill="#8b97a3"/>
<circle cx="958.2" cy="320" r="1.6" fill="#8b97a3"/>
<circle cx="963.4" cy="320" r="1.6" fill="#8b97a3"/>
<circle cx="968.6" cy="320" r="1.6" fill="#8b97a3"/>
<circle cx="973.8" cy="320" r="1.6" fill="#8b97a3"/>
<circle cx="979.0" cy="320" r="1.6" fill="#8b97a3"/>
<circle cx="984.2" cy="320" r="1.6" fill="#8b97a3"/>
<circle cx="989.4" cy="320" r="1.6" fill="#8b97a3"/>
<circle cx="994.5" cy="320" r="1.6" fill="#8b97a3"/>
<circle cx="999.7" cy="320" r="1.6" fill="#8b97a3"/>
<circle cx="1004.9" cy="320" r="1.6" fill="#8b97a3"/>
<circle cx="1010.1" cy="320" r="1.6" fill="#8b97a3"/>
<circle cx="1015.3" cy="320" r="1.6" fill="#8b97a3"/>
<circle cx="1020.5" cy="320" r="1.6" fill="#8b97a3"/>
<circle cx="1025.7" cy="320" r="1.6" fill="#8b97a3"/>
<circle cx="1030.9" cy="320" r="1.6" fill="#8b97a3"/>
<circle cx="1036.0" cy="320" r="1.6" fill="#8b97a3"/>
<circle cx="1041.2" cy="320" r="1.6" fill="#8b97a3"/>
<circle cx="1046.4" cy="320" r="1.6" fill="#8b97a3"/>
<circle cx="1051.6" cy="320" r="1.6" fill="#8b97a3"/>
<circle cx="1056.8" cy="320" r="1.6" fill="#8b97a3"/>
<circle cx="1062.0" cy="320" r="1.6" fill="#8b97a3"/>
<circle cx="1067.2" cy="320" r="1.6" fill="#8b97a3"/>
<circle cx="1072.4" cy="320" r="1.6" fill="#8b97a3"/>
<circle cx="1077.5" cy="320" r="1.6" fill="#8b97a3"/>
<circle cx="1082.7" cy="320" r="1.6" fill="#8b97a3"/>
<circle cx="1087.9" cy="320" r="1.6" fill="#8b97a3"/>
<circle cx="1093.1" cy="320" r="1.6" fill="#8b97a3"/>
<circle cx="1098.3" cy="320" r="1.6" fill="#8b97a3"/>
<circle cx="1103.5" cy="320" r="1.6" fill="#8b97a3"/>
<circle cx="1108.7" cy="320" r="1.6" fill="#8b97a3"/>
<circle cx="1113.9" cy="320" r="1.6" fill="#8b97a3"/>
<circle cx="1119.0" cy="320" r="1.6" fill="#8b97a3"/>
<circle cx="1124.2" cy="320" r="1.6" fill="#8b97a3"/>
<circle cx="1129.4" cy="320" r="1.6" fill="#8b97a3"/>
<circle cx="1134.6" cy="320" r="1.6" fill="#8b97a3"/>
<circle cx="1139.8" cy="320" r="1.6" fill="#8b97a3"/>
<circle cx="1145.0" cy="320" r="1.6" fill="#8b97a3"/>
<circle cx="1150.2" cy="320" r="1.6" fill="#8b97a3"/>
<circle cx="1155.4" cy="320" r="1.6" fill="#8b97a3"/>
<circle cx="1160.5" cy="320" r="1.6" fill="#8b97a3"/>
<circle cx="1165.7" cy="320" r="1.6" fill="#8b97a3"/>
<circle cx="1170.9" cy="320" r="1.6" fill="#8b97a3"/>
<circle cx="1176.1" cy="320" r="1.6" fill="#8b97a3"/>
<circle cx="1181.3" cy="320" r="1.6" fill="#8b97a3"/>
<circle cx="1186.5" cy="320" r="1.6" fill="#8b97a3"/>
<circle cx="1191.7" cy="320" r="1.6" fill="#8b97a3"/>
<circle cx="1196.9" cy="320" r="1.6" fill="#8b97a3"/>
<circle cx="1202.0" cy="320" r="1.6" fill="#8b97a3"/>
<circle cx="1207.2" cy="320" r="1.6" fill="#8b97a3"/>
<circle cx="1212.4" cy="320" r="1.6" fill="#8b97a3"/>
<circle cx="1217.6" cy="320" r="1.6" fill="#8b97a3"/>
<circle cx="1222.8" cy="320" r="1.6" fill="#8b97a3"/>
<circle cx="1228.0" cy="320" r="1.6" fill="#8b97a3"/>
<circle cx="1233.2" cy="320" r="1.6" fill="#8b97a3"/>
<circle cx="1238.4" cy="320" r="1.6" fill="#8b97a3"/>
<circle cx="1243.5" cy="320" r="1.6" fill="#8b97a3"/>
<circle cx="1248.7" cy="320" r="1.6" fill="#8b97a3"/>
<circle cx="1253.9" cy="320" r="1.6" fill="#8b97a3"/>
<circle cx="1259.1" cy="320" r="1.6" fill="#8b97a3"/>
<circle cx="1264.3" cy="320" r="1.6" fill="#8b97a3"/>
<circle cx="1269.5" cy="320" r="1.6" fill="#8b97a3"/>
<circle cx="1274.7" cy="320" r="1.6" fill="#8b97a3"/>
<circle cx="1279.9" cy="320" r="1.6" fill="#8b97a3"/>
<circle cx="1285.1" cy="320" r="1.6" fill="#8b97a3"/>
<circle cx="1290.2" cy="320" r="1.6" fill="#8b97a3"/>
<circle cx="1295.4" cy="320" r="1.6" fill="#8b97a3"/>
<circle cx="1300.6" cy="320" r="1.6" fill="#8b97a3"/>
<circle cx="1305.8" cy="320" r="1.6" fill="#8b97a3"/>
<circle cx="1311.0" cy="320" r="1.6" fill="#8b97a3"/>
<circle cx="1316.2" cy="320" r="1.6" fill="#8b97a3"/>
<circle cx="1321.4" cy="320" r="1.6" fill="#8b97a3"/>
<circle cx="1326.6" cy="320" r="1.6" fill="#8b97a3"/>
<circle cx="1331.7" cy="320" r="1.6" fill="#8b97a3"/>
<circle cx="1336.9" cy="320" r="1.6" fill="#8b97a3"/>
<circle cx="1342.1" cy="320" r="1.6" fill="#8b97a3"/>
<circle cx="1347.3" cy="320" r="1.6" fill="#8b97a3"/>
<circle cx="1352.5" cy="320" r="1.6" fill="#8b97a3"/>
<circle cx="1357.7" cy="320" r="1.6" fill="#8b97a3"/>
<circle cx="1362.9" cy="320" r="1.6" fill="#8b97a3"/>
<circle cx="1368.1" cy="320" r="1.6" fill="#8b97a3"/>
<circle cx="1373.2" cy="320" r="1.6" fill="#8b97a3"/>
<circle cx="1378.4" cy="320" r="1.6" fill="#8b97a3"/>
<circle cx="1383.6" cy="320" r="1.6" fill="#8b97a3"/>
<circle cx="1388.8" cy="320" r="1.6" fill="#8b97a3"/>
<circle cx="1394.0" cy="320" r="1.6" fill="#8b97a3"/>
<circle cx="1399.2" cy="320" r="1.6" fill="#8b97a3"/>
<circle cx="1404.4" cy="320" r="1.6" fill="#8b97a3"/>
<circle cx="1409.6" cy="320" r="1.6" fill="#8b97a3"/>
<circle cx="1414.7" cy="320" r="1.6" fill="#8b97a3"/>
<circle cx="1419.9" cy="320" r="1.6" fill="#8b97a3"/>
<circle cx="1425.1" cy="320" r="1.6" fill="#8b97a3"/>
<circle cx="1430.3" cy="320" r="1.6" fill="#8b97a3"/>
<circle cx="1435.5" cy="320" r="1.6" fill="#8b97a3"/>
<circle cx="1440.7" cy="320" r="1.6" fill="#8b97a3"/>
<circle cx="1445.9" cy="320" r="1.6" fill="#8b97a3"/>
<circle cx="1451.1" cy="320" r="1.6" fill="#8b97a3"/>
<circle cx="1456.2" cy="320" r="1.6" fill="#8b97a3"/>
<circle cx="1461.4" cy="320" r="1.6" fill="#8b97a3"/>
<circle cx="1466.6" cy="320" r="1.6" fill="#8b97a3"/>
<circle cx="1471.8" cy="320" r="1.6" fill="#8b97a3"/>
<circle cx="1477.0" cy="320" r="1.6" fill="#8b97a3"/>
<circle cx="1482.2" cy="320" r="1.6" fill="#8b97a3"/>
<circle cx="1487.4" cy="320" r="1.6" fill="#8b97a3"/>
<circle cx="1492.6" cy="320" r="1.6" fill="#8b97a3"/>
<circle cx="1497.7" cy="320" r="1.6" fill="#8b97a3"/>
<circle cx="1502.9" cy="320" r="1.6" fill="#8b97a3"/>
<circle cx="1508.1" cy="320" r="1.6" fill="#8b97a3"/>
<circle cx="1513.3" cy="320" r="1.6" fill="#8b97a3"/>
<circle cx="1518.5" cy="320" r="1.6" fill="#8b97a3"/>
<circle cx="1523.7" cy="320" r="1.6" fill="#8b97a3"/>
<circle cx="1528.9" cy="320" r="1.6" fill="#8b97a3"/>
<circle cx="1534.1" cy="320" r="1.6" fill="#8b97a3"/>
<circle cx="1539.2" cy="320" r="1.6" fill="#8b97a3"/>
<circle cx="1544.4" cy="320" r="1.6" fill="#8b97a3"/>
<circle cx="1549.6" cy="320" r="1.6" fill="#8b97a3"/>
<circle cx="1554.8" cy="320" r="1.6" fill="#8b97a3"/>
<circle cx="1560.0" cy="320" r="1.6" fill="#8b97a3"/>
<text x="20" y="624" fill="#ff9f43" font-size="14">statement arcs: 3</text>
<text x="240" y="624" fill="#4aa3df" font-size="14">body arcs: 8</text>
</svg>