<svg xmlns="http://www.w3.org/2000/svg" width="1600" height="220" style="background:#101418;font-family:monospace">
<text x="20" y="26" fill="#dce3ea" font-size="15">Equiv.Basic main-thread timeline — green = hidden by valid depth-1 speculation (60%), red = must run sequentially</text>
<rect x="40.00" y="60" width="1.20" height="90" fill="#e74c3c" fill-opacity="0.85"/>
<rect x="41.20" y="60" width="0.30" height="90" fill="#2ecc71" fill-opacity="0.85"/>
<rect x="41.44" y="60" width="0.30" height="90" fill="#2ecc71" fill-opacity="0.85"/>
<rect x="41.69" y="60" width="0.37" height="90" fill="#2ecc71" fill-opacity="0.85"/>
<rect x="42.06" y="60" width="0.50" height="90" fill="#2ecc71" fill-opacity="0.85"/>
<rect x="42.55" y="60" width="0.30" height="90" fill="#2ecc71" fill-opacity="0.85"/>
<rect x="42.76" y="60" width="0.30" height="90" fill="#2ecc71" fill-opacity="0.85"/>
<rect x="42.95" y="60" width="0.45" height="90" fill="#2ecc71" fill-opacity="0.85"/>
<rect x="43.40" y="60" width="0.30" height="90" fill="#2ecc71" fill-opacity="0.85"/>
<rect x="43.59" y="60" width="0.41" height="90" fill="#2ecc71" fill-opacity="0.85"/>
<rect x="44.00" y="60" width="2.83" height="90" fill="#2ecc71" fill-opacity="0.85"/>
<rect x="46.83" y="60" width="12.84" height="90" fill="#e74c3c" fill-opacity="0.85"/>
<rect x="59.66" y="60" width="5.17" height="90" fill="#e74c3c" fill-opacity="0.85"/>
<rect x="64.83" y="60" width="5.04" height="90" fill="#e74c3c" fill-opacity="0.85"/>
<rect x="69.87" y="60" width="0.30" height="90" fill="#2ecc71" fill-opacity="0.85"/>
<rect x="70.06" y="60" width="5.34" height="90" fill="#2ecc71" fill-opacity="0.85"/>
<rect x="75.40" y="60" width="0.30" height="90" fill="#2ecc71" fill-opacity="0.85"/>
<rect x="75.59" y="60" width="0.49" height="90" fill="#2ecc71" fill-opacity="0.85"/>
<rect x="76.08" y="60" width="20.07" height="90" fill="#e74c3c" fill-opacity="0.85"/>
<rect x="96.15" y="60" width="1.63" height="90" fill="#e74c3c" fill-opacity="0.85"/>
<rect x="97.77" y="60" width="3.08" height="90" fill="#2ecc71" fill-opacity="0.85"/>
<rect x="100.85" y="60" width="2.09" height="90" fill="#2ecc71" fill-opacity="0.85"/>
<rect x="102.94" y="60" width="2.31" height="90" fill="#2ecc71" fill-opacity="0.85"/>
<rect x="105.25" y="60" width="2.72" height="90" fill="#2ecc71" fill-opacity="0.85"/>
<rect x="107.97" y="60" width="4.83" height="90" fill="#2ecc71" fill-opacity="0.85"/>
<rect x="112.80" y="60" width="4.38" height="90" fill="#2ecc71" fill-opacity="0.85"/>
<rect x="117.19" y="60" width="2.17" height="90" fill="#e74c3c" fill-opacity="0.85"/>
<rect x="119.36" y="60" width="3.72" height="90" fill="#2ecc71" fill-opacity="0.85"/>
<rect x="123.07" y="60" width="4.81" height="90" fill="#2ecc71" fill-opacity="0.85"/>
<rect x="127.88" y="60" width="9.33" height="90" fill="#2ecc71" fill-opacity="0.85"/>
<rect x="137.21" y="60" width="2.79" height="90" fill="#e74c3c" fill-opacity="0.85"/>
<rect x="139.99" y="60" width="3.87" height="90" fill="#2ecc71" fill-opacity="0.85"/>
<rect x="143.86" y="60" width="5.38" height="90" fill="#2ecc71" fill-opacity="0.85"/>
<rect x="149.24" y="60" width="4.64" height="90" fill="#e74c3c" fill-opacity="0.85"/>
<rect x="153.89" y="60" width="0.30" height="90" fill="#2ecc71" fill-opacity="0.85"/>
<rect x="154.08" y="60" width="0.30" height="90" fill="#2ecc71" fill-opacity="0.85"/>
<rect x="154.28" y="60" width="0.42" height="90" fill="#2ecc71" fill-opacity="0.85"/>
<rect x="154.70" y="60" width="0.83" height="90" fill="#2ecc71" fill-opacity="0.85"/>
<rect x="155.54" y="60" width="7.51" height="90" fill="#e74c3c" fill-opacity="0.85"/>
<rect x="163.04" y="60" width="2.60" height="90" fill="#e74c3c" fill-opacity="0.85"/>
<rect x="165.64" y="60" width="0.30" height="90" fill="#2ecc71" fill-opacity="0.85"/>
<rect x="165.85" y="60" width="0.30" height="90" fill="#e74c3c" fill-opacity="0.85"/>
<rect x="166.04" y="60" width="0.30" height="90" fill="#2ecc71" fill-opacity="0.85"/>
<rect x="166.27" y="60" width="10.21" height="90" fill="#e74c3c" fill-opacity="0.85"/>
<rect x="176.48" y="60" width="0.30" height="90" fill="#2ecc71" fill-opacity="0.85"/>
<rect x="176.68" y="60" width="0.30" height="90" fill="#2ecc71" fill-opacity="0.85"/>
<rect x="176.87" y="60" width="0.47" height="90" fill="#2ecc71" fill-opacity="0.85"/>
<rect x="177.33" y="60" width="2.21" height="90" fill="#e74c3c" fill-opacity="0.85"/>
<rect x="179.55" y="60" width="10.72" height="90" fill="#e74c3c" fill-opacity="0.85"/>
<rect x="190.27" y="60" width="8.20" height="90" fill="#e74c3c" fill-opacity="0.85"/>
<rect x="198.48" y="60" width="0.30" height="90" fill="#2ecc71" fill-opacity="0.85"/>
<rect x="198.67" y="60" width="7.32" height="90" fill="#e74c3c" fill-opacity="0.85"/>
<rect x="206.00" y="60" width="0.30" height="90" fill="#2ecc71" fill-opacity="0.85"/>
<rect x="206.19" y="60" width="0.30" height="90" fill="#2ecc71" fill-opacity="0.85"/>
<rect x="206.38" y="60" width="0.44" height="90" fill="#2ecc71" fill-opacity="0.85"/>
<rect x="206.83" y="60" width="0.55" height="90" fill="#e74c3c" fill-opacity="0.85"/>
<rect x="207.37" y="60" width="1.13" height="90" fill="#2ecc71" fill-opacity="0.85"/>
<rect x="208.51" y="60" width="5.56" height="90" fill="#e74c3c" fill-opacity="0.85"/>
<rect x="214.07" y="60" width="5.31" height="90" fill="#e74c3c" fill-opacity="0.85"/>
<rect x="219.38" y="60" width="6.31" height="90" fill="#2ecc71" fill-opacity="0.85"/>
<rect x="225.69" y="60" width="7.44" height="90" fill="#2ecc71" fill-opacity="0.85"/>
<rect x="233.13" y="60" width="2.83" height="90" fill="#e74c3c" fill-opacity="0.85"/>
<rect x="235.95" y="60" width="3.81" height="90" fill="#2ecc71" fill-opacity="0.85"/>
<rect x="239.77" y="60" width="3.01" height="90" fill="#2ecc71" fill-opacity="0.85"/>
<rect x="242.78" y="60" width="5.91" height="90" fill="#2ecc71" fill-opacity="0.85"/>
<rect x="248.69" y="60" width="3.78" height="90" fill="#2ecc71" fill-opacity="0.85"/>
<rect x="252.47" y="60" width="2.62" height="90" fill="#2ecc71" fill-opacity="0.85"/>
<rect x="255.09" y="60" width="5.60" height="90" fill="#2ecc71" fill-opacity="0.85"/>
<rect x="260.69" y="60" width="0.30" height="90" fill="#2ecc71" fill-opacity="0.85"/>
<rect x="260.89" y="60" width="0.30" height="90" fill="#2ecc71" fill-opacity="0.85"/>
<rect x="261.09" y="60" width="0.39" height="90" fill="#2ecc71" fill-opacity="0.85"/>
<rect x="261.48" y="60" width="2.11" height="90" fill="#e74c3c" fill-opacity="0.85"/>
<rect x="263.59" y="60" width="9.18" height="90" fill="#e74c3c" fill-opacity="0.85"/>
<rect x="272.77" y="60" width="3.49" height="90" fill="#e74c3c" fill-opacity="0.85"/>
<rect x="276.27" y="60" width="5.16" height="90" fill="#2ecc71" fill-opacity="0.85"/>
<rect x="281.42" y="60" width="5.09" height="90" fill="#2ecc71" fill-opacity="0.85"/>
<rect x="286.51" y="60" width="6.21" height="90" fill="#2ecc71" fill-opacity="0.85"/>
<rect x="292.72" y="60" width="4.94" height="90" fill="#2ecc71" fill-opacity="0.85"/>
<rect x="297.66" y="60" width="3.53" height="90" fill="#2ecc71" fill-opacity="0.85"/>
<rect x="301.20" y="60" width="6.48" height="90" fill="#2ecc71" fill-opacity="0.85"/>
<rect x="307.68" y="60" width="0.30" height="90" fill="#2ecc71" fill-opacity="0.85"/>
<rect x="307.89" y="60" width="0.30" height="90" fill="#e74c3c" fill-opacity="0.85"/>
<rect x="308.08" y="60" width="0.30" height="90" fill="#2ecc71" fill-opacity="0.85"/>
<rect x="308.28" y="60" width="27.37" height="90" fill="#2ecc71" fill-opacity="0.85"/>
<rect x="335.65" y="60" width="5.47" height="90" fill="#e74c3c" fill-opacity="0.85"/>
<rect x="341.12" y="60" width="5.64" height="90" fill="#2ecc71" fill-opacity="0.85"/>
<rect x="346.76" y="60" width="0.30" height="90" fill="#2ecc71" fill-opacity="0.85"/>
<rect x="347.04" y="60" width="0.48" height="90" fill="#2ecc71" fill-opacity="0.85"/>
<rect x="347.52" y="60" width="20.69" height="90" fill="#e74c3c" fill-opacity="0.85"/>
<rect x="368.21" y="60" width="0.30" height="90" fill="#2ecc71" fill-opacity="0.85"/>
<rect x="368.41" y="60" width="13.87" height="90" fill="#2ecc71" fill-opacity="0.85"/>
<rect x="382.28" y="60" width="15.90" height="90" fill="#2ecc71" fill-opacity="0.85"/>
<rect x="398.18" y="60" width="10.79" height="90" fill="#e74c3c" fill-opacity="0.85"/>
<rect x="408.97" y="60" width="0.30" height="90" fill="#2ecc71" fill-opacity="0.85"/>
<rect x="409.16" y="60" width="0.30" height="90" fill="#2ecc71" fill-opacity="0.85"/>
<rect x="409.36" y="60" width="0.30" height="90" fill="#2ecc71" fill-opacity="0.85"/>
<rect x="409.56" y="60" width="0.35" height="90" fill="#2ecc71" fill-opacity="0.85"/>
<rect x="409.91" y="60" width="0.71" height="90" fill="#2ecc71" fill-opacity="0.85"/>
<rect x="410.62" y="60" width="0.60" height="90" fill="#e74c3c" fill-opacity="0.85"/>
<rect x="411.22" y="60" width="0.73" height="90" fill="#2ecc71" fill-opacity="0.85"/>
<rect x="411.95" y="60" width="1.00" height="90" fill="#e74c3c" fill-opacity="0.85"/>
<rect x="412.95" y="60" width="0.30" height="90" fill="#2ecc71" fill-opacity="0.85"/>
<rect x="413.15" y="60" width="1.07" height="90" fill="#2ecc71" fill-opacity="0.85"/>
<rect x="414.22" y="60" width="7.09" height="90" fill="#e74c3c" fill-opacity="0.85"/>
<rect x="421.31" y="60" width="3.46" height="90" fill="#e74c3c" fill-opacity="0.85"/>
<rect x="424.77" y="60" width="3.18" height="90" fill="#2ecc71" fill-opacity="0.85"/>
<rect x="427.95" y="60" width="3.17" height="90" fill="#2ecc71" fill-opacity="0.85"/>
<rect x="431.12" y="60" width="4.37" height="90" fill="#2ecc71" fill-opacity="0.85"/>
<rect x="435.49" y="60" width="0.30" height="90" fill="#2ecc71" fill-opacity="0.85"/>
<rect x="435.69" y="60" width="3.87" height="90" fill="#2ecc71" fill-opacity="0.85"/>
<rect x="439.55" y="60" width="0.30" height="90" fill="#2ecc71" fill-opacity="0.85"/>
<rect x="439.75" y="60" width="0.30" height="90" fill="#2ecc71" fill-opacity="0.85"/>
<rect x="439.96" y="60" width="0.32" height="90" fill="#2ecc71" fill-opacity="0.85"/>
<rect x="440.28" y="60" width="0.44" height="90" fill="#e74c3c" fill-opacity="0.85"/>
<rect x="440.72" y="60" width="0.43" height="90" fill="#2ecc71" fill-opacity="0.85"/>
<rect x="441.15" y="60" width="6.73" height="90" fill="#2ecc71" fill-opacity="0.85"/>
<rect x="447.88" y="60" width="1.94" height="90" fill="#e74c3c" fill-opacity="0.85"/>
<rect x="449.82" y="60" width="2.34" height="90" fill="#2ecc71" fill-opacity="0.85"/>
<rect x="452.16" y="60" width="0.30" height="90" fill="#2ecc71" fill-opacity="0.85"/>
<rect x="452.37" y="60" width="0.30" height="90" fill="#2ecc71" fill-opacity="0.85"/>
<rect x="452.57" y="60" width="0.36" height="90" fill="#2ecc71" fill-opacity="0.85"/>
<rect x="452.93" y="60" width="0.41" height="90" fill="#2ecc71" fill-opacity="0.85"/>
<rect x="453.34" y="60" width="0.99" height="90" fill="#e74c3c" fill-opacity="0.85"/>
<rect x="454.33" y="60" width="0.75" height="90" fill="#2ecc71" fill-opacity="0.85"/>
<rect x="455.08" y="60" width="1.04" height="90" fill="#e74c3c" fill-opacity="0.85"/>
<rect x="456.12" y="60" width="1.40" height="90" fill="#2ecc71" fill-opacity="0.85"/>
<rect x="457.52" y="60" width="6.39" height="90" fill="#e74c3c" fill-opacity="0.85"/>
<rect x="463.91" y="60" width="3.47" height="90" fill="#e74c3c" fill-opacity="0.85"/>
<rect x="467.38" y="60" width="3.69" height="90" fill="#2ecc71" fill-opacity="0.85"/>
<rect x="471.07" y="60" width="4.81" height="90" fill="#2ecc71" fill-opacity="0.85"/>
<rect x="475.88" y="60" width="5.43" height="90" fill="#2ecc71" fill-opacity="0.85"/>
<rect x="481.31" y="60" width="0.30" height="90" fill="#2ecc71" fill-opacity="0.85"/>
<rect x="481.52" y="60" width="0.30" height="90" fill="#e74c3c" fill-opacity="0.85"/>
<rect x="481.72" y="60" width="0.30" height="90" fill="#2ecc71" fill-opacity="0.85"/>
<rect x="482.00" y="60" width="0.94" height="90" fill="#2ecc71" fill-opacity="0.85"/>
<rect x="482.93" y="60" width="8.40" height="90" fill="#e74c3c" fill-opacity="0.85"/>
<rect x="491.33" y="60" width="0.90" height="90" fill="#2ecc71" fill-opacity="0.85"/>
<rect x="492.23" y="60" width="2.89" height="90" fill="#2ecc71" fill-opacity="0.85"/>
<rect x="495.12" y="60" width="2.17" height="90" fill="#e74c3c" fill-opacity="0.85"/>
<rect x="497.29" y="60" width="3.22" height="90" fill="#2ecc71" fill-opacity="0.85"/>
<rect x="500.51" y="60" width="0.30" height="90" fill="#2ecc71" fill-opacity="0.85"/>
<rect x="500.73" y="60" width="0.30" height="90" fill="#2ecc71" fill-opacity="0.85"/>
<rect x="500.95" y="60" width="0.30" height="90" fill="#2ecc71" fill-opacity="0.85"/>
<rect x="501.15" y="60" width="0.30" height="90" fill="#2ecc71" fill-opacity="0.85"/>
<rect x="501.35" y="60" width="0.41" height="90" fill="#2ecc71" fill-opacity="0.85"/>
<rect x="501.77" y="60" width="0.53" height="90" fill="#2ecc71" fill-opacity="0.85"/>
<rect x="502.30" y="60" width="1.07" height="90" fill="#2ecc71" fill-opacity="0.85"/>
<rect x="503.36" y="60" width="0.99" height="90" fill="#e74c3c" fill-opacity="0.85"/>
<rect x="504.35" y="60" width="1.42" height="90" fill="#2ecc71" fill-opacity="0.85"/>
<rect x="505.77" y="60" width="1.46" height="90" fill="#2ecc71" fill-opacity="0.85"/>
<rect x="507.24" y="60" width="1.57" height="90" fill="#2ecc71" fill-opacity="0.85"/>
<rect x="508.80" y="60" width="3.03" height="90" fill="#2ecc71" fill-opacity="0.85"/>
<rect x="511.84" y="60" width="2.34" height="90" fill="#2ecc71" fill-opacity="0.85"/>
<rect x="514.18" y="60" width="2.95" height="90" fill="#2ecc71" fill-opacity="0.85"/>
<rect x="517.13" y="60" width="3.12" height="90" fill="#2ecc71" fill-opacity="0.85"/>
<rect x="520.26" y="60" width="27.60" height="90" fill="#e74c3c" fill-opacity="0.85"/>
<rect x="547.86" y="60" width="23.49" height="90" fill="#e74c3c" fill-opacity="0.85"/>
<rect x="571.35" y="60" width="43.95" height="90" fill="#2ecc71" fill-opacity="0.85"/>
<rect x="615.30" y="60" width="0.30" height="90" fill="#2ecc71" fill-opacity="0.85"/>
<rect x="615.51" y="60" width="0.30" height="90" fill="#e74c3c" fill-opacity="0.85"/>
<rect x="615.73" y="60" width="0.30" height="90" fill="#2ecc71" fill-opacity="0.85"/>
<rect x="615.94" y="60" width="0.43" height="90" fill="#2ecc71" fill-opacity="0.85"/>
<rect x="616.37" y="60" width="0.75" height="90" fill="#e74c3c" fill-opacity="0.85"/>
<rect x="617.12" y="60" width="0.30" height="90" fill="#2ecc71" fill-opacity="0.85"/>
<rect x="617.33" y="60" width="3.26" height="90" fill="#2ecc71" fill-opacity="0.85"/>
<rect x="620.59" y="60" width="0.32" height="90" fill="#2ecc71" fill-opacity="0.85"/>
<rect x="620.91" y="60" width="0.30" height="90" fill="#2ecc71" fill-opacity="0.85"/>
<rect x="621.10" y="60" width="0.97" height="90" fill="#2ecc71" fill-opacity="0.85"/>
<rect x="622.07" y="60" width="1.04" height="90" fill="#2ecc71" fill-opacity="0.85"/>
<rect x="623.12" y="60" width="1.13" height="90" fill="#2ecc71" fill-opacity="0.85"/>
<rect x="624.25" y="60" width="1.23" height="90" fill="#2ecc71" fill-opacity="0.85"/>
<rect x="625.47" y="60" width="1.28" height="90" fill="#2ecc71" fill-opacity="0.85"/>
<rect x="626.75" y="60" width="1.34" height="90" fill="#2ecc71" fill-opacity="0.85"/>
<rect x="628.09" y="60" width="1.41" height="90" fill="#2ecc71" fill-opacity="0.85"/>
<rect x="629.50" y="60" width="1.73" height="90" fill="#2ecc71" fill-opacity="0.85"/>
<rect x="631.22" y="60" width="2.20" height="90" fill="#2ecc71" fill-opacity="0.85"/>
<rect x="633.42" y="60" width="2.57" height="90" fill="#2ecc71" fill-opacity="0.85"/>
<rect x="635.99" y="60" width="2.69" height="90" fill="#2ecc71" fill-opacity="0.85"/>
<rect x="638.68" y="60" width="2.84" height="90" fill="#2ecc71" fill-opacity="0.85"/>
<rect x="641.52" y="60" width="2.86" height="90" fill="#2ecc71" fill-opacity="0.85"/>
<rect x="644.38" y="60" width="3.07" height="90" fill="#2ecc71" fill-opacity="0.85"/>
<rect x="647.45" y="60" width="3.42" height="90" fill="#2ecc71" fill-opacity="0.85"/>
<rect x="650.87" y="60" width="3.51" height="90" fill="#2ecc71" fill-opacity="0.85"/>
<rect x="654.38" y="60" width="3.77" height="90" fill="#2ecc71" fill-opacity="0.85"/>
<rect x="658.15" y="60" width="3.90" height="90" fill="#2ecc71" fill-opacity="0.85"/>
<rect x="662.06" y="60" width="3.96" height="90" fill="#2ecc71" fill-opacity="0.85"/>
<rect x="666.01" y="60" width="4.29" height="90" fill="#2ecc71" fill-opacity="0.85"/>
<rect x="670.30" y="60" width="4.21" height="90" fill="#2ecc71" fill-opacity="0.85"/>
<rect x="674.51" y="60" width="4.43" height="90" fill="#2ecc71" fill-opacity="0.85"/>
<rect x="678.93" y="60" width="4.64" height="90" fill="#2ecc71" fill-opacity="0.85"/>
<rect x="683.58" y="60" width="4.76" height="90" fill="#2ecc71" fill-opacity="0.85"/>
<rect x="688.34" y="60" width="4.71" height="90" fill="#2ecc71" fill-opacity="0.85"/>
<rect x="693.05" y="60" width="4.98" height="90" fill="#2ecc71" fill-opacity="0.85"/>
<rect x="698.03" y="60" width="5.97" height="90" fill="#2ecc71" fill-opacity="0.85"/>
<rect x="704.00" y="60" width="6.09" height="90" fill="#2ecc71" fill-opacity="0.85"/>
<rect x="710.08" y="60" width="6.98" height="90" fill="#2ecc71" fill-opacity="0.85"/>
<rect x="717.07" y="60" width="7.28" height="90" fill="#2ecc71" fill-opacity="0.85"/>
<rect x="724.35" y="60" width="8.17" height="90" fill="#2ecc71" fill-opacity="0.85"/>
<rect x="732.52" y="60" width="8.68" height="90" fill="#2ecc71" fill-opacity="0.85"/>
<rect x="741.20" y="60" width="9.78" height="90" fill="#2ecc71" fill-opacity="0.85"/>
<rect x="750.99" y="60" width="10.91" height="90" fill="#2ecc71" fill-opacity="0.85"/>
<rect x="761.90" y="60" width="11.22" height="90" fill="#2ecc71" fill-opacity="0.85"/>
<rect x="773.12" y="60" width="12.19" height="90" fill="#2ecc71" fill-opacity="0.85"/>
<rect x="785.31" y="60" width="12.82" height="90" fill="#2ecc71" fill-opacity="0.85"/>
<rect x="798.12" y="60" width="13.76" height="90" fill="#2ecc71" fill-opacity="0.85"/>
<rect x="811.88" y="60" width="14.17" height="90" fill="#2ecc71" fill-opacity="0.85"/>
<rect x="826.05" y="60" width="15.40" height="90" fill="#2ecc71" fill-opacity="0.85"/>
<rect x="841.45" y="60" width="16.25" height="90" fill="#2ecc71" fill-opacity="0.85"/>
<rect x="857.70" y="60" width="17.01" height="90" fill="#2ecc71" fill-opacity="0.85"/>
<rect x="874.71" y="60" width="18.40" height="90" fill="#2ecc71" fill-opacity="0.85"/>
<rect x="893.10" y="60" width="18.90" height="90" fill="#2ecc71" fill-opacity="0.85"/>
<rect x="912.00" y="60" width="19.22" height="90" fill="#2ecc71" fill-opacity="0.85"/>
<rect x="931.22" y="60" width="54.28" height="90" fill="#2ecc71" fill-opacity="0.85"/>
<rect x="985.51" y="60" width="26.40" height="90" fill="#e74c3c" fill-opacity="0.85"/>
<rect x="1011.91" y="60" width="26.98" height="90" fill="#2ecc71" fill-opacity="0.85"/>
<rect x="1038.89" y="60" width="36.54" height="90" fill="#2ecc71" fill-opacity="0.85"/>
<rect x="1075.43" y="60" width="42.59" height="90" fill="#2ecc71" fill-opacity="0.85"/>
<rect x="1118.02" y="60" width="25.43" height="90" fill="#2ecc71" fill-opacity="0.85"/>
<rect x="1143.45" y="60" width="23.72" height="90" fill="#2ecc71" fill-opacity="0.85"/>
<rect x="1167.17" y="60" width="23.40" height="90" fill="#2ecc71" fill-opacity="0.85"/>
<rect x="1190.56" y="60" width="25.18" height="90" fill="#2ecc71" fill-opacity="0.85"/>
<rect x="1215.74" y="60" width="26.79" height="90" fill="#2ecc71" fill-opacity="0.85"/>
<rect x="1242.53" y="60" width="31.90" height="90" fill="#2ecc71" fill-opacity="0.85"/>
<rect x="1274.43" y="60" width="24.94" height="90" fill="#2ecc71" fill-opacity="0.85"/>
<rect x="1299.37" y="60" width="25.30" height="90" fill="#2ecc71" fill-opacity="0.85"/>
<rect x="1324.67" y="60" width="23.59" height="90" fill="#2ecc71" fill-opacity="0.85"/>
<rect x="1348.26" y="60" width="21.43" height="90" fill="#2ecc71" fill-opacity="0.85"/>
<rect x="1369.69" y="60" width="0.30" height="90" fill="#2ecc71" fill-opacity="0.85"/>
<rect x="1369.90" y="60" width="5.33" height="90" fill="#e74c3c" fill-opacity="0.85"/>
<rect x="1375.23" y="60" width="18.33" height="90" fill="#2ecc71" fill-opacity="0.85"/>
<rect x="1393.56" y="60" width="0.30" height="90" fill="#2ecc71" fill-opacity="0.85"/>
<rect x="1393.77" y="60" width="0.30" height="90" fill="#2ecc71" fill-opacity="0.85"/>
<rect x="1393.98" y="60" width="0.74" height="90" fill="#2ecc71" fill-opacity="0.85"/>
<rect x="1394.72" y="60" width="0.70" height="90" fill="#2ecc71" fill-opacity="0.85"/>
<rect x="1395.42" y="60" width="0.30" height="90" fill="#2ecc71" fill-opacity="0.85"/>
<rect x="1395.63" y="60" width="7.71" height="90" fill="#2ecc71" fill-opacity="0.85"/>
<rect x="1403.34" y="60" width="0.30" height="90" fill="#2ecc71" fill-opacity="0.85"/>
<rect x="1403.55" y="60" width="0.30" height="90" fill="#e74c3c" fill-opacity="0.85"/>
<rect x="1403.76" y="60" width="0.30" height="90" fill="#2ecc71" fill-opacity="0.85"/>
<rect x="1403.96" y="60" width="0.68" height="90" fill="#2ecc71" fill-opacity="0.85"/>
<rect x="1404.64" y="60" width="3.92" height="90" fill="#e74c3c" fill-opacity="0.85"/>
<rect x="1408.56" y="60" width="0.30" height="90" fill="#2ecc71" fill-opacity="0.85"/>
<rect x="1408.77" y="60" width="0.30" height="90" fill="#2ecc71" fill-opacity="0.85"/>
<rect x="1408.99" y="60" width="0.46" height="90" fill="#2ecc71" fill-opacity="0.85"/>
<rect x="1409.45" y="60" width="0.45" height="90" fill="#2ecc71" fill-opacity="0.85"/>
<rect x="1409.90" y="60" width="0.30" height="90" fill="#2ecc71" fill-opacity="0.85"/>
<rect x="1410.10" y="60" width="3.67" height="90" fill="#2ecc71" fill-opacity="0.85"/>
<rect x="1413.77" y="60" width="1.51" height="90" fill="#e74c3c" fill-opacity="0.85"/>
<rect x="1415.28" y="60" width="1.61" height="90" fill="#2ecc71" fill-opacity="0.85"/>
<rect x="1416.89" y="60" width="2.44" height="90" fill="#2ecc71" fill-opacity="0.85"/>
<rect x="1419.33" y="60" width="2.36" height="90" fill="#2ecc71" fill-opacity="0.85"/>
<rect x="1421.69" y="60" width="1.31" height="90" fill="#2ecc71" fill-opacity="0.85"/>
<rect x="1423.00" y="60" width="0.31" height="90" fill="#2ecc71" fill-opacity="0.85"/>
<rect x="1423.31" y="60" width="0.30" height="90" fill="#2ecc71" fill-opacity="0.85"/>
<rect x="1423.52" y="60" width="0.30" height="90" fill="#2ecc71" fill-opacity="0.85"/>
<rect x="1423.72" y="60" width="8.58" height="90" fill="#e74c3c" fill-opacity="0.85"/>
<rect x="1432.30" y="60" width="2.20" height="90" fill="#e74c3c" fill-opacity="0.85"/>
<rect x="1434.50" y="60" width="2.29" height="90" fill="#2ecc71" fill-opacity="0.85"/>
<rect x="1436.79" y="60" width="4.66" height="90" fill="#2ecc71" fill-opacity="0.85"/>
<rect x="1441.45" y="60" width="3.27" height="90" fill="#2ecc71" fill-opacity="0.85"/>
<rect x="1444.72" y="60" width="0.30" height="90" fill="#2ecc71" fill-opacity="0.85"/>
<rect x="1444.94" y="60" width="0.30" height="90" fill="#e74c3c" fill-opacity="0.85"/>
<rect x="1445.15" y="60" width="0.30" height="90" fill="#2ecc71" fill-opacity="0.85"/>
<rect x="1445.36" y="60" width="0.30" height="90" fill="#2ecc71" fill-opacity="0.85"/>
<rect x="1445.56" y="60" width="12.14" height="90" fill="#2ecc71" fill-opacity="0.85"/>
<rect x="1457.71" y="60" width="7.15" height="90" fill="#2ecc71" fill-opacity="0.85"/>
<rect x="1464.86" y="60" width="0.30" height="90" fill="#2ecc71" fill-opacity="0.85"/>
<rect x="1465.14" y="60" width="0.30" height="90" fill="#e74c3c" fill-opacity="0.85"/>
<rect x="1465.35" y="60" width="0.30" height="90" fill="#2ecc71" fill-opacity="0.85"/>
<rect x="1465.55" y="60" width="0.50" height="90" fill="#2ecc71" fill-opacity="0.85"/>
<rect x="1466.05" y="60" width="0.35" height="90" fill="#2ecc71" fill-opacity="0.85"/>
<rect x="1466.40" y="60" width="1.08" height="90" fill="#2ecc71" fill-opacity="0.85"/>
<rect x="1467.48" y="60" width="22.01" height="90" fill="#e74c3c" fill-opacity="0.85"/>
<rect x="1489.49" y="60" width="4.94" height="90" fill="#e74c3c" fill-opacity="0.85"/>
<rect x="1494.43" y="60" width="5.44" height="90" fill="#2ecc71" fill-opacity="0.85"/>
<rect x="1499.87" y="60" width="4.01" height="90" fill="#2ecc71" fill-opacity="0.85"/>
<rect x="1503.88" y="60" width="7.70" height="90" fill="#2ecc71" fill-opacity="0.85"/>
<rect x="1511.58" y="60" width="5.30" height="90" fill="#2ecc71" fill-opacity="0.85"/>
<rect x="1516.88" y="60" width="3.72" height="90" fill="#2ecc71" fill-opacity="0.85"/>
<rect x="1520.60" y="60" width="2.67" height="90" fill="#2ecc71" fill-opacity="0.85"/>
<rect x="1523.27" y="60" width="0.30" height="90" fill="#2ecc71" fill-opacity="0.85"/>
<rect x="1523.48" y="60" width="0.30" height="90" fill="#2ecc71" fill-opacity="0.85"/>
<rect x="1523.73" y="60" width="1.72" height="90" fill="#2ecc71" fill-opacity="0.85"/>
<rect x="1525.45" y="60" width="7.12" height="90" fill="#e74c3c" fill-opacity="0.85"/>
<rect x="1532.57" y="60" width="4.44" height="90" fill="#e74c3c" fill-opacity="0.85"/>
<rect x="1537.01" y="60" width="4.99" height="90" fill="#2ecc71" fill-opacity="0.85"/>
<rect x="1542.00" y="60" width="3.14" height="90" fill="#2ecc71" fill-opacity="0.85"/>
<rect x="1545.14" y="60" width="4.59" height="90" fill="#2ecc71" fill-opacity="0.85"/>
<rect x="1549.73" y="60" width="3.54" height="90" fill="#2ecc71" fill-opacity="0.85"/>
<rect x="1553.27" y="60" width="3.47" height="90" fill="#2ecc71" fill-opacity="0.85"/>
<rect x="1556.74" y="60" width="2.36" height="90" fill="#2ecc71" fill-opacity="0.85"/>
<rect x="1559.11" y="60" width="0.30" height="90" fill="#2ecc71" fill-opacity="0.85"/>
<rect x="1559.33" y="60" width="0.30" height="90" fill="#e74c3c" fill-opacity="0.85"/>
<rect x="1559.61" y="60" width="0.30" height="90" fill="#e74c3c" fill-opacity="0.85"/>
<rect x="1559.81" y="60" width="0.30" height="90" fill="#e74c3c" fill-opacity="0.85"/>
<text x="40" y="180" fill="#2ecc71" font-size="13">hidden: 2,870 ms</text>
<text x="240" y="180" fill="#e74c3c" font-size="13">sequential residue: 1,081 ms (depth-1 window caps hides at 2,870)</text>
</svg>