<svg xmlns="http://www.w3.org/2000/svg" width="760" height="340" viewBox="0 0 760 340" font-family="system-ui,-apple-system,'Segoe UI',sans-serif"><rect width="760" height="340" fill="#fcfcfb" rx="8"/><text x="16" y="26" font-size="15" font-weight="600" fill="#0b0b0b">Where the corpus wall-clock actually goes — Batteries cold build</text><text x="16" y="44" font-size="12" fill="#52514e">the build is critical-path-bound: the weighted longest module chain (10.0s) exceeds the 16-core work floor (8.1s)</text><line x1="60" y1="250.0" x2="456" y2="250.0" stroke="#e1e0d9"/><text x="52" y="254.0" font-size="11" fill="#898781" text-anchor="end">0s</text><line x1="60" y1="204.28571428571428" x2="456" y2="204.28571428571428" stroke="#e1e0d9"/><text x="52" y="208.28571428571428" font-size="11" fill="#898781" text-anchor="end">4s</text><line x1="60" y1="158.57142857142856" x2="456" y2="158.57142857142856" stroke="#e1e0d9"/><text x="52" y="162.57142857142856" font-size="11" fill="#898781" text-anchor="end">8s</text><line x1="60" y1="112.85714285714286" x2="456" y2="112.85714285714286" stroke="#e1e0d9"/><text x="52" y="116.85714285714286" font-size="11" fill="#898781" text-anchor="end">12s</text><path d="M80 157.42857142857144 h76 a4 4 0 0 1 4 4 v84.57142857142857 a4 4 0 0 1 -4 4 h-76 z" fill="#86b6ef"/><text x="120.0" y="149.42857142857144" font-size="13" font-weight="600" fill="#0b0b0b" text-anchor="middle">8.1s</text><text x="120.0" y="266" font-size="10.5" fill="#898781" text-anchor="middle">total work</text><text x="120.0" y="279" font-size="10.5" fill="#898781" text-anchor="middle">/16 cores</text><path d="M212 135.71428571428572 h76 a4 4 0 0 1 4 4 v106.28571428571429 a4 4 0 0 1 -4 4 h-76 z" fill="#104281"/><text x="252.0" y="127.71428571428572" font-size="13" font-weight="600" fill="#0b0b0b" text-anchor="middle">10.0s</text><text x="252.0" y="266" font-size="10.5" fill="#898781" text-anchor="middle">critical</text><text x="252.0" y="279" font-size="10.5" fill="#898781" text-anchor="middle">path</text><path d="M344 101.42857142857142 h76 a4 4 0 0 1 4 4 v140.57142857142858 a4 4 0 0 1 -4 4 h-76 z" fill="#2a78d6"/><text x="384.0" y="93.42857142857142" font-size="13" font-weight="600" fill="#0b0b0b" text-anchor="middle">13.0s</text><text x="384.0" y="266" font-size="10.5" fill="#898781" text-anchor="middle">actual</text><text x="384.0" y="279" font-size="10.5" fill="#898781" text-anchor="middle">wall</text><line x1="60" y1="250" x2="456" y2="250" stroke="#c3c2b7"/><text x="470" y="80" font-size="12" font-weight="600" fill="#52514e">critical chain (serial, gates wall)</text><path d="M470 100 h92.0 a4 4 0 0 1 4 4 v16 a4 4 0 0 1 -4 4 h-92.0 z" fill="#2a78d6"/><text x="572.0" y="116" font-size="11" fill="#0b0b0b">1.6s</text><text x="470" y="97" font-size="10.5" fill="#52514e">Tactic.Alias</text><path d="M470 140 h134.0 a4 4 0 0 1 4 4 v16 a4 4 0 0 1 -4 4 h-134.0 z" fill="#2a78d6"/><text x="614.0" y="156" font-size="11" fill="#0b0b0b">2.3s</text><text x="470" y="137" font-size="10.5" fill="#52514e">List.Basic</text><path d="M470 180 h206.0 a4 4 0 0 1 4 4 v16 a4 4 0 0 1 -4 4 h-206.0 z" fill="#104281"/><text x="686.0" y="196" font-size="11" fill="#0b0b0b">3.5s</text><text x="470" y="177" font-size="10.5" fill="#52514e">List.Lemmas</text><path d="M470 220 h122.0 a4 4 0 0 1 4 4 v16 a4 4 0 0 1 -4 4 h-122.0 z" fill="#2a78d6"/><text x="602.0" y="236" font-size="11" fill="#0b0b0b">2.1s</text><text x="470" y="217" font-size="10.5" fill="#52514e">RBTree.Lemmas</text><text x="470" y="285" font-size="11" fill="#898781">these proof-heavy modules cap at</text><text x="470" y="301" font-size="11" fill="#898781">~2.9 of 16 cores (34% serial) →</text><text x="470" y="317" font-size="11" fill="#898781">~13 cores idle in the build tail</text></svg>