<svg xmlns="http://www.w3.org/2000/svg" width="760" height="376" viewBox="0 0 760 376" font-family="system-ui,-apple-system,'Segoe UI',sans-serif"><rect width="760" height="376" fill="#fcfcfb" rx="8"/><text x="16" y="26" font-size="15" font-weight="600" fill="#0b0b0b">Where CPU time goes — Batteries.Data.List.Lemmas</text><text x="16" y="44" font-size="12" fill="#52514e">cumulative seconds across elaboration threads · lean 4.34.0-pre · gray = waiting, blue = work</text><line x1="190.0" y1="58" x2="190.0" y2="342" stroke="#e1e0d9" stroke-width="1"/><text x="190.0" y="358" font-size="11" fill="#898781" text-anchor="middle">0s</text><line x1="332.8571428571429" y1="58" x2="332.8571428571429" y2="342" stroke="#e1e0d9" stroke-width="1"/><text x="332.8571428571429" y="358" font-size="11" fill="#898781" text-anchor="middle">2s</text><line x1="475.7142857142857" y1="58" x2="475.7142857142857" y2="342" stroke="#e1e0d9" stroke-width="1"/><text x="475.7142857142857" y="358" font-size="11" fill="#898781" text-anchor="middle">4s</text><line x1="618.5714285714286" y1="58" x2="618.5714285714286" y2="342" stroke="#e1e0d9" stroke-width="1"/><text x="618.5714285714286" y="358" font-size="11" fill="#898781" text-anchor="middle">6s</text><text x="182" y="80" font-size="12" fill="#52514e" text-anchor="end">blocked (thread idle)</text><path d="M190 64 h471.00000000000006 a4 4 0 0 1 4 4 v14 a4 4 0 0 1 -4 4 h-471.00000000000006 z" fill="#898781"/><text x="671.0" y="80" font-size="12" fill="#0b0b0b">6.65s</text><text x="182" y="114" font-size="12" fill="#52514e" text-anchor="end">grind (total)</text><path d="M190 98 h200.28571428571428 a4 4 0 0 1 4 4 v14 a4 4 0 0 1 -4 4 h-200.28571428571428 z" fill="#2a78d6"/><text x="400.2857142857143" y="114" font-size="12" fill="#0b0b0b">2.86s</text><text x="182" y="148" font-size="12" fill="#52514e" text-anchor="end">kernel type checking</text><path d="M190 132 h103.85714285714286 a4 4 0 0 1 4 4 v14 a4 4 0 0 1 -4 4 h-103.85714285714286 z" fill="#2a78d6"/><text x="303.8571428571429" y="148" font-size="12" fill="#0b0b0b">1.51s</text><text x="182" y="182" font-size="12" fill="#52514e" text-anchor="end">typeclass inference</text><path d="M190 166 h88.85714285714286 a4 4 0 0 1 4 4 v14 a4 4 0 0 1 -4 4 h-88.85714285714286 z" fill="#2a78d6"/><text x="288.8571428571429" y="182" font-size="12" fill="#0b0b0b">1.30s</text><text x="182" y="216" font-size="12" fill="#52514e" text-anchor="end">simp</text><path d="M190 200 h47.42857142857143 a4 4 0 0 1 4 4 v14 a4 4 0 0 1 -4 4 h-47.42857142857143 z" fill="#2a78d6"/><text x="247.42857142857144" y="216" font-size="12" fill="#0b0b0b">0.72s</text><text x="182" y="250" font-size="12" fill="#52514e" text-anchor="end">tactic execution</text><path d="M190 234 h36.714285714285715 a4 4 0 0 1 4 4 v14 a4 4 0 0 1 -4 4 h-36.714285714285715 z" fill="#2a78d6"/><text x="236.71428571428572" y="250" font-size="12" fill="#0b0b0b">0.57s</text><text x="182" y="284" font-size="12" fill="#52514e" text-anchor="end">elaboration (core)</text><path d="M190 268 h34.57142857142858 a4 4 0 0 1 4 4 v14 a4 4 0 0 1 -4 4 h-34.57142857142858 z" fill="#2a78d6"/><text x="234.57142857142858" y="284" font-size="12" fill="#0b0b0b">0.54s</text><text x="182" y="318" font-size="12" fill="#52514e" text-anchor="end">import</text><path d="M190 302 h10.285714285714286 a4 4 0 0 1 4 4 v14 a4 4 0 0 1 -4 4 h-10.285714285714286 z" fill="#2a78d6"/><text x="210.28571428571428" y="318" font-size="12" fill="#0b0b0b">0.20s</text><line x1="190" y1="58" x2="190" y2="342" stroke="#c3c2b7" stroke-width="1"/></svg>