<svg xmlns="http://www.w3.org/2000/svg" width="760" height="364" viewBox="0 0 760 364" font-family="system-ui,-apple-system,'Segoe UI',sans-serif"><rect width="760" height="364" fill="#fcfcfb" rx="8"/><text x="16" y="26" font-size="15" font-weight="600" fill="#0b0b0b">Main-thread time by command kind — 5 slowest Batteries modules</text><text x="16" y="44" font-size="12" fill="#52514e">main thread = the critical path (80% occupied) · total 8.54s · dark = synchronous Kernel checking inside</text><rect x="250" y="57" width="10" height="10" rx="2" fill="#2a78d6"/><text x="265" y="66" font-size="11" fill="#52514e">elaboration</text><rect x="372" y="57" width="10" height="10" rx="2" fill="#104281"/><text x="387" y="66" font-size="11" fill="#52514e">sync Kernel check</text><line x1="250.0" y1="80" x2="250.0" y2="330" stroke="#e1e0d9"/><text x="250.0" y="346" font-size="11" fill="#898781" text-anchor="middle">0s</text><line x1="356.5" y1="80" x2="356.5" y2="330" stroke="#e1e0d9"/><text x="356.5" y="346" font-size="11" fill="#898781" text-anchor="middle">0.5s</text><line x1="463.0" y1="80" x2="463.0" y2="330" stroke="#e1e0d9"/><text x="463.0" y="346" font-size="11" fill="#898781" text-anchor="middle">1.0s</text><line x1="569.5" y1="80" x2="569.5" y2="330" stroke="#e1e0d9"/><text x="569.5" y="346" font-size="11" fill="#898781" text-anchor="middle">1.5s</text><line x1="676.0" y1="80" x2="676.0" y2="330" stroke="#e1e0d9"/><text x="676.0" y="346" font-size="11" fill="#898781" text-anchor="middle">2.0s</text><text x="242" y="102" font-size="12" fill="#52514e" text-anchor="end">theorem (headers + sync fallback)</text><path d="M250 86 h383.66 a4 4 0 0 1 4 4 v14 a4 4 0 0 1 -4 4 h-383.66 z" fill="#2a78d6"/><text x="643.6600000000001" y="102" font-size="12" fill="#0b0b0b">1.82s</text><text x="242" y="136" font-size="12" fill="#52514e" text-anchor="end">runFrontend (parse/loop/snapshots)</text><path d="M250 120 h379.40000000000003 a4 4 0 0 1 4 4 v14 a4 4 0 0 1 -4 4 h-379.40000000000003 z" fill="#2a78d6"/><text x="639.4000000000001" y="136" font-size="12" fill="#0b0b0b">1.80s</text><text x="242" y="170" font-size="12" fill="#52514e" text-anchor="end">definition (sync bodies)</text><path d="M250 154 h321.89 a4 4 0 0 1 4 4 v14 a4 4 0 0 1 -4 4 h-321.89 z" fill="#2a78d6"/><text x="581.89" y="170" font-size="12" fill="#0b0b0b">1.53s</text><text x="242" y="204" font-size="12" fill="#52514e" text-anchor="end">structure</text><rect x="250" y="188" width="30.94999999999998" height="22" fill="#2a78d6"/><path d="M282.95 188 h286.81 a4 4 0 0 1 4 4 v14 a4 4 0 0 1 -4 4 h-286.81 z" fill="#104281"/><text x="579.76" y="204" font-size="12" fill="#0b0b0b">1.52s (Kernel 1.37s)</text><text x="242" y="238" font-size="12" fill="#52514e" text-anchor="end">inductive</text><rect x="250" y="222" width="13.90999999999999" height="22" fill="#2a78d6"/><path d="M265.90999999999997 222 h159.01 a4 4 0 0 1 4 4 v14 a4 4 0 0 1 -4 4 h-159.01 z" fill="#104281"/><text x="434.91999999999996" y="238" font-size="12" fill="#0b0b0b">0.84s (Kernel 0.77s)</text><text x="242" y="272" font-size="12" fill="#52514e" text-anchor="end">metaprograms (alias, elab, …)</text><path d="M250 256 h198.35 a4 4 0 0 1 4 4 v14 a4 4 0 0 1 -4 4 h-198.35 z" fill="#2a78d6"/><text x="458.35" y="272" font-size="12" fill="#0b0b0b">0.95s</text><text x="242" y="306" font-size="12" fill="#52514e" text-anchor="end">instance / other</text><path d="M250 290 h13.04 a4 4 0 0 1 4 4 v14 a4 4 0 0 1 -4 4 h-13.04 z" fill="#2a78d6"/><text x="273.04" y="306" font-size="12" fill="#0b0b0b">0.08s</text><line x1="250" y1="80" x2="250" y2="330" stroke="#c3c2b7"/></svg>