<svg xmlns="http://www.w3.org/2000/svg" width="760" height="254" viewBox="0 0 760 254" font-family="system-ui,-apple-system,'Segoe UI',sans-serif"><rect width="760" height="254" fill="#fcfcfb" rx="8"/><text x="16" y="26" font-size="15" font-weight="600" fill="#0b0b0b">How each synthInstance call is served — hot module</text><text x="16" y="44" font-size="12" fill="#52514e">darker = costlier · duplicates among fresh derivations: 91% (13,018 calls, 1,179 unique)</text><rect x="170" width="0" height="0" fill="none"/><rect x="0" width="0" height="0" fill="none"/><rect x="0" width="0" height="0" fill="none"/><rect x="170" y="53" width="10" height="10" rx="2" fill="#104281"/><text x="185" y="62" font-size="11" fill="#52514e">fresh derivation</text><rect x="341" y="53" width="10" height="10" rx="2" fill="#2a78d6"/><text x="356" y="62" font-size="11" fill="#52514e">global cache hit</text><rect x="512" y="53" width="10" height="10" rx="2" fill="#86b6ef"/><text x="527" y="62" font-size="11" fill="#52514e">per-command cache</text><text x="162" y="102" font-size="12" fill="#52514e" text-anchor="end">upstream (unpatched)</text><rect x="170" y="84" width="374.83684210526314" height="26" fill="#104281"/><text x="358.4184210526316" y="102" font-size="11" fill="#fcfcfb" text-anchor="middle">13,018</text><path d="M546.8368421052631 84 h159.20263157894738 a4 4 0 0 1 4 4 v18 a4 4 0 0 1 -4 4 h-159.20263157894738 z" fill="#86b6ef"/><text x="629.4381578947368" y="102" font-size="11" fill="#0b0b0b" text-anchor="middle">5,707</text><text x="162" y="172" font-size="12" fill="#52514e" text-anchor="end">with v0 global cache</text><rect x="170" y="154" width="163.7236842105263" height="26" fill="#104281"/><text x="252.86184210526315" y="172" font-size="11" fill="#fcfcfb" text-anchor="middle">5,725</text><rect x="335.7236842105263" y="154" width="110.08421052631579" height="26" fill="#2a78d6"/><text x="391.7657894736842" y="172" font-size="11" fill="#fcfcfb" text-anchor="middle">3,872</text><path d="M447.80789473684206 154 h138.41842105263157 a4 4 0 0 1 4 4 v18 a4 4 0 0 1 -4 4 h-138.41842105263157 z" fill="#86b6ef"/><text x="520.0171052631579" y="172" font-size="11" fill="#0b0b0b" text-anchor="middle">4,989</text></svg>