<svg xmlns="http://www.w3.org/2000/svg" width="640" height="320" viewBox="0 0 640 320" font-family="system-ui,-apple-system,'Segoe UI',sans-serif"><rect width="640" height="320" fill="#fcfcfb" rx="8"/><text x="16" y="26" font-size="15" font-weight="600" fill="#0b0b0b">Intra-module parallelism plateaus at ~2.4×</text><text x="16" y="44" font-size="12" fill="#52514e">wall-clock of lean --threads=N on the hot module (16-core machine)</text><line x1="64" y1="272.0" x2="600" y2="272.0" stroke="#e1e0d9" stroke-width="1"/><text x="56" y="276.0" font-size="11" fill="#898781" text-anchor="end">0s</text><line x1="64" y1="220.0" x2="600" y2="220.0" stroke="#e1e0d9" stroke-width="1"/><text x="56" y="224.0" font-size="11" fill="#898781" text-anchor="end">2s</text><line x1="64" y1="168.0" x2="600" y2="168.0" stroke="#e1e0d9" stroke-width="1"/><text x="56" y="172.0" font-size="11" fill="#898781" text-anchor="end">4s</text><line x1="64" y1="116.0" x2="600" y2="116.0" stroke="#e1e0d9" stroke-width="1"/><text x="56" y="120.0" font-size="11" fill="#898781" text-anchor="end">6s</text><line x1="64" y1="64.0" x2="600" y2="64.0" stroke="#e1e0d9" stroke-width="1"/><text x="56" y="68.0" font-size="11" fill="#898781" text-anchor="end">8s</text><path d="M64.0 85.8 L140.6 162.5 L293.7 193.2 L600.0 195.0" fill="none" stroke="#2a78d6" stroke-width="2"/><circle cx="64.0" cy="85.8" r="4.5" fill="#2a78d6" stroke="#fcfcfb" stroke-width="2"/><text x="64.0" y="73.8" font-size="12" fill="#0b0b0b" text-anchor="middle">7.16s</text><text x="64.0" y="294" font-size="11" fill="#898781" text-anchor="middle">1</text><circle cx="140.6" cy="162.5" r="4.5" fill="#2a78d6" stroke="#fcfcfb" stroke-width="2"/><text x="140.6" y="150.5" font-size="12" fill="#0b0b0b" text-anchor="middle">4.21s</text><text x="140.6" y="294" font-size="11" fill="#898781" text-anchor="middle">2</text><circle cx="293.7" cy="193.2" r="4.5" fill="#2a78d6" stroke="#fcfcfb" stroke-width="2"/><text x="293.7" y="181.2" font-size="12" fill="#0b0b0b" text-anchor="middle">3.03s</text><text x="293.7" y="294" font-size="11" fill="#898781" text-anchor="middle">4</text><circle cx="600.0" cy="195.0" r="4.5" fill="#2a78d6" stroke="#fcfcfb" stroke-width="2"/><text x="600.0" y="183.0" font-size="12" fill="#0b0b0b" text-anchor="middle">2.96s</text><text x="600.0" y="294" font-size="11" fill="#898781" text-anchor="middle">8</text><text x="332.0" y="312" font-size="11" fill="#898781" text-anchor="middle">--threads</text><line x1="64" y1="64" x2="64" y2="272" stroke="#c3c2b7" stroke-width="1"/><line x1="64" y1="272" x2="600" y2="272" stroke="#c3c2b7" stroke-width="1"/><text x="596.0" y="221.04" font-size="11" fill="#52514e" text-anchor="end">Amdahl serial fraction ≈ 40%</text></svg>