<svg xmlns="http://www.w3.org/2000/svg" width="760" height="300" viewBox="0 0 760 300" font-family="system-ui,-apple-system,'Segoe UI',sans-serif"><rect width="760" height="300" fill="#fcfcfb" rx="8"/><text x="16" y="26" font-size="15" font-weight="600" fill="#0b0b0b">v0 exact-key cache: typeclass-inference time A/B</text><text x="16" y="44" font-size="12" fill="#52514e">same patched binary, -DsynthInstance.globalCache toggle · lower is better</text><text x="200.0" y="70" font-size="12" font-weight="600" fill="#52514e" text-anchor="middle">Synthetic: 200 identical queries</text><path d="M80 246 v-125.6 a4 4 0 0 1 4 -4 h64 a4 4 0 0 1 4 4 v125.6 z" fill="#86b6ef"/><text x="116.0" y="108.4" font-size="13" font-weight="600" fill="#0b0b0b" text-anchor="middle">166ms</text><text x="116.0" y="264" font-size="11" fill="#898781" text-anchor="middle">cache off</text><path d="M208 246 v-1.4650602409638553 a4 4 0 0 1 4 -4 h64 a4 4 0 0 1 4 4 v1.4650602409638553 z" fill="#1c5cab"/><text x="244.0" y="232.53493975903615" font-size="13" font-weight="600" fill="#0b0b0b" text-anchor="middle">7ms</text><text x="244.0" y="264" font-size="11" fill="#898781" text-anchor="middle">cache on</text><line x1="56" y1="246" x2="356" y2="246" stroke="#c3c2b7" stroke-width="1"/><text x="352" y="100" font-size="12" fill="#006300" text-anchor="end">24× less</text><text x="580.0" y="70" font-size="12" font-weight="600" fill="#52514e" text-anchor="middle">Hot module (real code)</text><path d="M460 246 v-125.6 a4 4 0 0 1 4 -4 h64 a4 4 0 0 1 4 4 v125.6 z" fill="#86b6ef"/><text x="496.0" y="108.4" font-size="13" font-weight="600" fill="#0b0b0b" text-anchor="middle">851ms</text><text x="496.0" y="264" font-size="11" fill="#898781" text-anchor="middle">cache off</text><path d="M588 246 v-82.04465334900117 a4 4 0 0 1 4 -4 h64 a4 4 0 0 1 4 4 v82.04465334900117 z" fill="#1c5cab"/><text x="624.0" y="151.95534665099882" font-size="13" font-weight="600" fill="#0b0b0b" text-anchor="middle">565ms</text><text x="624.0" y="264" font-size="11" fill="#898781" text-anchor="middle">cache on</text><line x1="436" y1="246" x2="736" y2="246" stroke="#c3c2b7" stroke-width="1"/><text x="732" y="100" font-size="12" fill="#006300" text-anchor="end">−34%</text></svg>